<svg id="visual" viewBox="0 0 960 540" width="960" height="540" xmlns="http://www.w3.org/2000/svg" xmlns:xlink="http://www.w3.org/1999/xlink" version="1.1">
  <rect x="0" y="0" fill="#581c87" height="540" width="960" />
  <defs>
    <linearGradient id="grad1_0" x1="43.8%" y1="100%" x2="100%" y2="0%">
      <stop offset="14.444444444444446%" stop-color="#6b21a8" stop-opacity="1" />
      <stop offset="85.55555555555554%" stop-color="#6b21a8" stop-opacity="1" />
    </linearGradient>
  </defs>
  <defs>
    <linearGradient id="grad1_1" x1="43.8%" y1="100%" x2="100%" y2="0%">
      <stop offset="14.444444444444446%" stop-color="#6b21a8" stop-opacity="1" />
      <stop offset="85.55555555555554%" stop-color="#6820a2" stop-opacity="1" />
    </linearGradient>
  </defs>
  <defs>
    <linearGradient id="grad1_2" x1="43.8%" y1="100%" x2="100%" y2="0%">
      <stop offset="14.444444444444446%" stop-color="#651f9d" stop-opacity="1" />
      <stop offset="85.55555555555554%" stop-color="#6820a2" stop-opacity="1" />
    </linearGradient>
  </defs>
  <defs>
    <linearGradient id="grad1_3" x1="43.8%" y1="100%" x2="100%" y2="0%">
      <stop offset="14.444444444444446%" stop-color="#651f9d" stop-opacity="1" />
      <stop offset="85.55555555555554%" stop-color="#611e97" stop-opacity="1" />
    </linearGradient>
  </defs>
  <defs>
    <linearGradient id="grad1_4" x1="43.8%" y1="100%" x2="100%" y2="0%">
      <stop offset="14.444444444444446%" stop-color="#5e1e92" stop-opacity="1" />
      <stop offset="85.55555555555554%" stop-color="#611e97" stop-opacity="1" />
    </linearGradient>
  </defs>
  <defs>
    <linearGradient id="grad1_5" x1="43.8%" y1="100%" x2="100%" y2="0%">
      <stop offset="14.444444444444446%" stop-color="#5e1e92" stop-opacity="1" />
      <stop offset="85.55555555555554%" stop-color="#5b1d8c" stop-opacity="1" />
    </linearGradient>
  </defs>
  <defs>
    <linearGradient id="grad1_6" x1="43.8%" y1="100%" x2="100%" y2="0%">
      <stop offset="14.444444444444446%" stop-color="#581c87" stop-opacity="1" />
      <stop offset="85.55555555555554%" stop-color="#5b1d8c" stop-opacity="1" />
    </linearGradient>
  </defs>
  <defs>
    <linearGradient id="grad2_0" x1="0%" y1="100%" x2="56.3%" y2="0%">
      <stop offset="14.444444444444446%" stop-color="#6b21a8" stop-opacity="1" />
      <stop offset="85.55555555555554%" stop-color="#6b21a8" stop-opacity="1" />
    </linearGradient>
  </defs>
  <defs>
    <linearGradient id="grad2_1" x1="0%" y1="100%" x2="56.3%" y2="0%">
      <stop offset="14.444444444444446%" stop-color="#6820a2" stop-opacity="1" />
      <stop offset="85.55555555555554%" stop-color="#6b21a8" stop-opacity="1" />
    </linearGradient>
  </defs>
  <defs>
    <linearGradient id="grad2_2" x1="0%" y1="100%" x2="56.3%" y2="0%">
      <stop offset="14.444444444444446%" stop-color="#6820a2" stop-opacity="1" />
      <stop offset="85.55555555555554%" stop-color="#651f9d" stop-opacity="1" />
    </linearGradient>
  </defs>
  <defs>
    <linearGradient id="grad2_3" x1="0%" y1="100%" x2="56.3%" y2="0%">
      <stop offset="14.444444444444446%" stop-color="#611e97" stop-opacity="1" />
      <stop offset="85.55555555555554%" stop-color="#651f9d" stop-opacity="1" />
    </linearGradient>
  </defs>
  <defs>
    <linearGradient id="grad2_4" x1="0%" y1="100%" x2="56.3%" y2="0%">
      <stop offset="14.444444444444446%" stop-color="#611e97" stop-opacity="1" />
      <stop offset="85.55555555555554%" stop-color="#5e1e92" stop-opacity="1" />
    </linearGradient>
  </defs>
  <defs>
    <linearGradient id="grad2_5" x1="0%" y1="100%" x2="56.3%" y2="0%">
      <stop offset="14.444444444444446%" stop-color="#5b1d8c" stop-opacity="1" />
      <stop offset="85.55555555555554%" stop-color="#5e1e92" stop-opacity="1" />
    </linearGradient>
  </defs>
  <defs>
    <linearGradient id="grad2_6" x1="0%" y1="100%" x2="56.3%" y2="0%">
      <stop offset="14.444444444444446%" stop-color="#5b1d8c" stop-opacity="1" />
      <stop offset="85.55555555555554%" stop-color="#581c87" stop-opacity="1" />
    </linearGradient>
  </defs>
  <g transform="translate(960, 540)">
    <path d="M-243 0C-227.7 -27.1 -212.3 -54.2 -202.3 -83.8C-192.3 -113.4 -187.6 -145.4 -170.4 -170.4C-153.2 -195.5 -123.5 -213.6 -93 -224.5C-62.5 -235.4 -31.3 -239.2 0 -243L0 0Z" fill="#5a1c8a" />
    <path d="M-208.3 0C-195.1 -23.2 -182 -46.5 -173.4 -71.8C-164.8 -97.2 -160.8 -124.6 -146.1 -146.1C-131.3 -167.5 -105.8 -183.1 -79.7 -192.4C-53.6 -201.8 -26.8 -205 0 -208.3L0 0Z" fill="#5d1d8f" />
    <path d="M-173.6 0C-162.6 -19.4 -151.7 -38.7 -144.5 -59.9C-137.4 -81 -134 -103.8 -121.7 -121.7C-109.4 -139.6 -88.2 -152.5 -66.4 -160.4C-44.6 -168.2 -22.3 -170.9 0 -173.6L0 0Z" fill="#601e95" />
    <path d="M-138.9 0C-130.1 -15.5 -121.3 -31 -115.6 -47.9C-109.9 -64.8 -107.2 -83.1 -97.4 -97.4C-87.5 -111.7 -70.6 -122 -53.1 -128.3C-35.7 -134.5 -17.9 -136.7 0 -138.9L0 0Z" fill="#631f9a" />
    <path d="M-104.1 0C-97.6 -11.6 -91 -23.2 -86.7 -35.9C-82.4 -48.6 -80.4 -62.3 -73 -73C-65.7 -83.8 -52.9 -91.5 -39.9 -96.2C-26.8 -100.9 -13.4 -102.5 0 -104.1L0 0Z" fill="#6620a0" />
    <path d="M-69.4 0C-65 -7.7 -60.7 -15.5 -57.8 -23.9C-54.9 -32.4 -53.6 -41.5 -48.7 -48.7C-43.8 -55.8 -35.3 -61 -26.6 -64.1C-17.9 -67.3 -8.9 -68.3 0 -69.4L0 0Z" fill="#6921a5" />
    <path d="M-34.7 0C-32.5 -3.9 -30.3 -7.7 -28.9 -12C-27.5 -16.2 -26.8 -20.8 -24.3 -24.3C-21.9 -27.9 -17.6 -30.5 -13.3 -32.1C-8.9 -33.6 -4.5 -34.2 0 -34.7L0 0Z" fill="#6b21a8" />
  </g>
  <g transform="translate(0, 0)">
    <path d="M243 0C224 25.4 204.9 50.8 195.9 81.1C186.8 111.5 187.7 146.8 171.8 171.8C155.9 196.9 123.3 211.6 91.8 221.7C60.4 231.9 30.2 237.4 0 243L0 0Z" fill="#5a1c8a" />
    <path d="M208.3 0C192 21.8 175.7 43.5 167.9 69.5C160.1 95.6 160.9 125.8 147.3 147.3C133.7 168.7 105.7 181.4 78.7 190.1C51.8 198.8 25.9 203.5 0 208.3L0 0Z" fill="#5d1d8f" />
    <path d="M173.6 0C160 18.1 146.4 36.3 139.9 57.9C133.4 79.6 134.1 104.9 122.7 122.7C111.4 140.6 88.1 151.1 65.6 158.4C43.1 165.6 21.6 169.6 0 173.6L0 0Z" fill="#601e95" />
    <path d="M138.9 0C128 14.5 117.1 29 111.9 46.4C106.7 63.7 107.3 83.9 98.2 98.2C89.1 112.5 70.4 120.9 52.5 126.7C34.5 132.5 17.3 135.7 0 138.9L0 0Z" fill="#631f9a" />
    <path d="M104.1 0C96 10.9 87.8 21.8 83.9 34.8C80.1 47.8 80.4 62.9 73.6 73.6C66.8 84.4 52.8 90.7 39.4 95C25.9 99.4 12.9 101.8 0 104.1L0 0Z" fill="#6620a0" />
    <path d="M69.4 0C64 7.3 58.6 14.5 56 23.2C53.4 31.9 53.6 41.9 49.1 49.1C44.6 56.2 35.2 60.5 26.2 63.4C17.3 66.3 8.6 67.8 0 69.4L0 0Z" fill="#6921a5" />
    <path d="M34.7 0C32 3.6 29.3 7.3 28 11.6C26.7 15.9 26.8 21 24.5 24.5C22.3 28.1 17.6 30.2 13.1 31.7C8.6 33.1 4.3 33.9 0 34.7L0 0Z" fill="#6b21a8" />
  </g>
</svg>
